<?xml version="1.0" encoding="UTF-8" standalone="no"?>
<!-- Generator: Adobe Illustrator 19.2.1, SVG Export Plug-In . SVG Version: 6.00 Build 0)  -->

<svg
   version="1.1"
   id="layer"
   x="0px"
   y="0px"
   viewBox="0 0 652 352"
   xml:space="preserve"
   sodipodi:docname="emarsys-logo.svg"
   width="652"
   height="352"
   inkscape:version="1.4 (e7c3feb1, 2024-10-09)"
   xmlns:inkscape="http://www.inkscape.org/namespaces/inkscape"
   xmlns:sodipodi="http://sodipodi.sourceforge.net/DTD/sodipodi-0.dtd"
   xmlns="http://www.w3.org/2000/svg"
   xmlns:svg="http://www.w3.org/2000/svg"><defs
   id="defs3" /><sodipodi:namedview
   id="namedview2"
   pagecolor="#ffffff"
   bordercolor="#000000"
   borderopacity="0.25"
   inkscape:showpageshadow="2"
   inkscape:pageopacity="0.0"
   inkscape:pagecheckerboard="0"
   inkscape:deskcolor="#d1d1d1"
   inkscape:zoom="0.94031655"
   inkscape:cx="294.58165"
   inkscape:cy="189.29796"
   inkscape:current-layer="layer" />
<style
   type="text/css"
   id="style1">
	.st0{fill:#0C2838;}
	.st1{filter:url(#Adobe_OpacityMaskFilter);}
	.st2{fill:#FFFFFF;}
	.st3{mask:url(#mask-2_1_);fill:#0C2838;}
	.st4{fill:#D9E506;}
	.st5{filter:url(#Adobe_OpacityMaskFilter_1_);}
	.st6{mask:url(#mask-4_1_);fill:#6984D1;}
	.st7{fill:#40877E;}
	.st8{fill:#32D17E;}
</style>
<g
   id="Homepage"
   transform="translate(5.52648,-146.02427)">
	<g
   id="Homepage---Active-Client"
   transform="translate(-33,-34)">
		<g
   id="Page-1"
   transform="translate(33,34)">
			<path
   id="Fill-1"
   class="st0"
   d="m 193.8,321.6 c -1.3,-8.6 -6.8,-14.3 -18.4,-14.3 -10.3,0 -16.9,5.3 -18.7,14.3 z m 12.6,7.3 v 1.4 h -50.2 c 0.6,11.9 8.9,16.7 20.3,16.7 9.9,0 16.6,-3.2 20.4,-7.9 l 6.4,9 c -5.4,4.7 -14.3,9.1 -27.5,9.1 -18.3,0 -31.6,-9.9 -31.6,-27.9 v -1.6 c 0,-16.8 12,-29.8 31.4,-29.8 23,0.2 31,15.9 30.8,31 z" />
			<path
   id="Fill-3"
   class="st0"
   d="m 318,325.8 v 30.3 h -13.3 v -30.4 c 0,-10.6 -4.4,-16.2 -15.1,-16.2 -7.2,0 -12.1,2.5 -15.6,6.6 v 40 h -13.5 v -32.3 c 0,-9 -3.8,-14.4 -14.3,-14.4 -6.7,0 -12.9,2.6 -16.5,7.4 v 39.3 h -13.3 v -56.9 h 11.9 l 0.8,8.4 c 3.5,-4.6 10.5,-9.5 21.4,-9.5 9,0 16.3,4.1 19.5,10.6 4.3,-5.3 11.9,-10.6 22,-10.6 17.3,0 26,9.3 26,27.7" />
			<path
   id="Fill-5"
   class="st0"
   d="m 374.5,341 v -8 c -5.2,-1.9 -11.7,-3.4 -18.3,-3.4 -10.2,0 -16,1.8 -16,9 0,7 7,8.9 15.1,8.9 7.8,-0.1 15.1,-2.2 19.2,-6.5 z m 1.6,15.1 c -0.6,-1.9 -1,-4.6 -1.2,-7 -3.7,3.8 -10.4,8.2 -22.2,8.2 -12.4,0 -24.7,-5 -24.7,-18 0,-14.3 11.2,-18.7 25.3,-18.7 8.3,0 15.7,2 21.3,4.4 l 0.1,-3.5 c 0.1,-10.2 -7.3,-13.2 -17.8,-13.2 -9,0 -16.1,2.5 -20.1,6 l -4.2,-10.2 c 6.1,-3.2 13.9,-6 25.8,-6 16.1,0 28.2,7 27.9,24.6 -0.1,5.6 -0.1,12.5 -0.1,18.1 0,8.9 0.4,12.7 1.1,15.3 z" />
			<path
   id="Fill-7"
   class="st0"
   d="m 436.5,300.2 -2.3,12.4 c -1.8,-1.2 -4.4,-2 -7.8,-2 -6.6,0 -11.7,4.9 -13.8,11.7 v 33.9 h -12.9 v -56.9 h 12 l 0.7,13 c 2.4,-8.6 7.8,-13.5 16,-13.5 2.9,-0.1 6.3,0.5 8.1,1.4" />
			<path
   id="Fill-9"
   class="st0"
   d="m 440.1,350.3 4.3,-10.8 c 5.2,4.8 13.9,7.7 22.9,7.7 10.5,0 16.8,-2.4 16.8,-8.6 0,-6.5 -7.2,-6 -19.2,-7.2 -14.1,-1.7 -22.5,-4.1 -22.5,-14.5 0,-10.3 8.2,-18.7 25.8,-18.7 9.6,0 18,1.7 24.6,4.8 l -3.8,10 c -5,-3.4 -12.5,-4.8 -20.7,-4.8 -9.4,0 -14.7,2.6 -14.7,7.9 0,5 7.2,4.9 18.7,6.2 10.5,1.2 22.7,2.8 22.7,15.7 0,13.1 -10.3,19.2 -27.4,19.2 -10.9,0 -20.7,-2.7 -27.5,-6.9" />
			<path
   id="Fill-11"
   class="st0"
   d="m 565.9,299.2 c -14.4,32.6 -28.2,62 -40.1,81.4 l -12.6,-4 c 5.4,-7.6 9.7,-15.6 12.3,-20.9 l -26.2,-56.6 h 14.2 l 19.1,46.5 19.5,-46.5 h 13.8 z" />
			<g
   id="Group-15"
   transform="translate(138.84704,9.48901)">
				<g
   id="Clip-14">
				</g>
				<defs
   id="defs1">
					<filter
   id="Adobe_OpacityMaskFilter"
   filterUnits="userSpaceOnUse"
   x="426.60001"
   y="288.60001"
   width="55.099998"
   height="59.099998">
						<feColorMatrix
   type="matrix"
   values="1 0 0 0 0  0 1 0 0 0  0 0 1 0 0  0 0 0 1 0"
   id="feColorMatrix1" />
					</filter>
				</defs>
				<mask
   maskUnits="userSpaceOnUse"
   x="426.6"
   y="288.6"
   width="55.1"
   height="59.1"
   id="mask-2_1_">
					<g
   class="st1"
   id="g1">
						<polygon
   id="path-1_1_"
   class="st2"
   points="481.7,288.6 481.7,347.7 426.6,347.7 426.6,288.6 " />
					</g>
				</mask>
				<path
   id="Fill-13"
   class="st3"
   d="m 426.6,340.8 4.3,-10.8 c 5.2,4.8 13.9,7.7 22.9,7.7 10.5,0 16.8,-2.4 16.8,-8.6 0,-6.5 -7.2,-6 -19.2,-7.2 -14.1,-1.7 -22.5,-4.1 -22.5,-14.5 0,-10.3 8.2,-18.7 25.8,-18.7 9.6,0 18,1.7 24.6,4.8 l -3.8,10 c -5,-3.4 -12.5,-4.8 -20.7,-4.8 -9.4,0 -14.7,2.6 -14.7,7.9 0,5 7.2,4.9 18.7,6.2 10.5,1.2 22.7,2.8 22.7,15.7 0,13.1 -10.3,19.2 -27.4,19.2 -10.8,0 -20.7,-2.7 -27.5,-6.9"
   mask="url(#mask-2_1_)" />
			</g>
			<polygon
   id="Fill-16"
   class="st4"
   points="63.8,317.5 63.8,336.9 107.1,317.5 107.1,298 " />
			<g
   id="Group-20"
   transform="translate(5.07977,19.648549)">
				<g
   id="Clip-19">
				</g>
				<defs
   id="defs2">
					<filter
   id="Adobe_OpacityMaskFilter_1_"
   filterUnits="userSpaceOnUse"
   x="37.400002"
   y="317.20001"
   width="64.599998"
   height="48">
						<feColorMatrix
   type="matrix"
   values="1 0 0 0 0  0 1 0 0 0  0 0 1 0 0  0 0 0 1 0"
   id="feColorMatrix2" />
					</filter>
				</defs>
				<mask
   maskUnits="userSpaceOnUse"
   x="37.4"
   y="317.2"
   width="64.6"
   height="48"
   id="mask-4_1_">
					<g
   class="st5"
   id="g2">
						<polygon
   id="path-3_1_"
   class="st2"
   points="37.4,365.2 102,365.2 102,317.2 37.4,317.2 " />
					</g>
				</mask>
				<polygon
   id="Fill-18"
   class="st6"
   points="102,336.6 37.4,365.2 37.4,345.8 102,317.2 "
   mask="url(#mask-4_1_)" />
			</g>
			<polygon
   id="Fill-21"
   class="st7"
   points="63.8,317.5 63.8,336.9 20.6,317.5 20.6,298 " />
			<polygon
   id="Fill-23"
   class="st8"
   points="107.1,278.6 20.6,317.5 20.6,298 107.1,259.2 " />
		</g>
	</g>
</g>
</svg>
