<?xml version="1.0" encoding="utf-8"?>
<!-- Generator: Adobe Illustrator 19.2.1, SVG Export Plug-In . SVG Version: 6.00 Build 0)  -->
<svg version="1.1" id="layer" xmlns="http://www.w3.org/2000/svg" xmlns:xlink="http://www.w3.org/1999/xlink" x="0px" y="0px"
	 viewBox="0 0 652 652" style="enable-background:new 0 0 652 652;" xml:space="preserve">
<style type="text/css">
	.st0{fill:#0C2838;}
	.st1{filter:url(#Adobe_OpacityMaskFilter);}
	.st2{fill:#FFFFFF;}
	.st3{mask:url(#mask-2_1_);fill:#0C2838;}
	.st4{fill:#D9E506;}
	.st5{filter:url(#Adobe_OpacityMaskFilter_1_);}
	.st6{mask:url(#mask-4_1_);fill:#6984D1;}
	.st7{fill:#40877E;}
	.st8{fill:#32D17E;}
</style>
<g id="Homepage">
	<g id="Homepage---Active-Client" transform="translate(-33.000000, -34.000000)">
		<g id="Page-1" transform="translate(33.000000, 34.000000)">
			<path id="Fill-1" class="st0" d="M193.8,321.6c-1.3-8.6-6.8-14.3-18.4-14.3c-10.3,0-16.9,5.3-18.7,14.3H193.8z M206.4,328.9v1.4
				h-50.2c0.6,11.9,8.9,16.7,20.3,16.7c9.9,0,16.6-3.2,20.4-7.9l6.4,9c-5.4,4.7-14.3,9.1-27.5,9.1c-18.3,0-31.6-9.9-31.6-27.9v-1.6
				c0-16.8,12-29.8,31.4-29.8C198.6,298.1,206.6,313.8,206.4,328.9L206.4,328.9z"/>
			<path id="Fill-3" class="st0" d="M318,325.8v30.3h-13.3v-30.4c0-10.6-4.4-16.2-15.1-16.2c-7.2,0-12.1,2.5-15.6,6.6v40h-13.5
				v-32.3c0-9-3.8-14.4-14.3-14.4c-6.7,0-12.9,2.6-16.5,7.4v39.3h-13.3v-56.9h11.9l0.8,8.4c3.5-4.6,10.5-9.5,21.4-9.5
				c9,0,16.3,4.1,19.5,10.6c4.3-5.3,11.9-10.6,22-10.6C309.3,298.1,318,307.4,318,325.8"/>
			<path id="Fill-5" class="st0" d="M374.5,341v-8c-5.2-1.9-11.7-3.4-18.3-3.4c-10.2,0-16,1.8-16,9c0,7,7,8.9,15.1,8.9
				C363.1,347.4,370.4,345.3,374.5,341L374.5,341z M376.1,356.1c-0.6-1.9-1-4.6-1.2-7c-3.7,3.8-10.4,8.2-22.2,8.2
				c-12.4,0-24.7-5-24.7-18c0-14.3,11.2-18.7,25.3-18.7c8.3,0,15.7,2,21.3,4.4l0.1-3.5c0.1-10.2-7.3-13.2-17.8-13.2
				c-9,0-16.1,2.5-20.1,6l-4.2-10.2c6.1-3.2,13.9-6,25.8-6c16.1,0,28.2,7,27.9,24.6c-0.1,5.6-0.1,12.5-0.1,18.1
				c0,8.9,0.4,12.7,1.1,15.3H376.1z"/>
			<path id="Fill-7" class="st0" d="M436.5,300.2l-2.3,12.4c-1.8-1.2-4.4-2-7.8-2c-6.6,0-11.7,4.9-13.8,11.7v33.9h-12.9v-56.9h12
				l0.7,13c2.4-8.6,7.8-13.5,16-13.5C431.3,298.7,434.7,299.3,436.5,300.2"/>
			<path id="Fill-9" class="st0" d="M440.1,350.3l4.3-10.8c5.2,4.8,13.9,7.7,22.9,7.7c10.5,0,16.8-2.4,16.8-8.6
				c0-6.5-7.2-6-19.2-7.2c-14.1-1.7-22.5-4.1-22.5-14.5c0-10.3,8.2-18.7,25.8-18.7c9.6,0,18,1.7,24.6,4.8l-3.8,10
				c-5-3.4-12.5-4.8-20.7-4.8c-9.4,0-14.7,2.6-14.7,7.9c0,5,7.2,4.9,18.7,6.2c10.5,1.2,22.7,2.8,22.7,15.7
				c0,13.1-10.3,19.2-27.4,19.2C456.7,357.2,446.9,354.5,440.1,350.3"/>
			<path id="Fill-11" class="st0" d="M565.9,299.2c-14.4,32.6-28.2,62-40.1,81.4l-12.6-4c5.4-7.6,9.7-15.6,12.3-20.9l-26.2-56.6
				h14.2l19.1,46.5l19.5-46.5H565.9z"/>
			<g id="Group-15" transform="translate(138.847039, 9.489010)">
				<g id="Clip-14">
				</g>
				<defs>
					<filter id="Adobe_OpacityMaskFilter" filterUnits="userSpaceOnUse" x="426.6" y="288.6" width="55.1" height="59.1">
						<feColorMatrix  type="matrix" values="1 0 0 0 0  0 1 0 0 0  0 0 1 0 0  0 0 0 1 0"/>
					</filter>
				</defs>
				<mask maskUnits="userSpaceOnUse" x="426.6" y="288.6" width="55.1" height="59.1" id="mask-2_1_">
					<g class="st1">
						<polygon id="path-1_1_" class="st2" points="481.7,288.6 481.7,347.7 426.6,347.7 426.6,288.6 						"/>
					</g>
				</mask>
				<path id="Fill-13" class="st3" d="M426.6,340.8l4.3-10.8c5.2,4.8,13.9,7.7,22.9,7.7c10.5,0,16.8-2.4,16.8-8.6
					c0-6.5-7.2-6-19.2-7.2c-14.1-1.7-22.5-4.1-22.5-14.5c0-10.3,8.2-18.7,25.8-18.7c9.6,0,18,1.7,24.6,4.8l-3.8,10
					c-5-3.4-12.5-4.8-20.7-4.8c-9.4,0-14.7,2.6-14.7,7.9c0,5,7.2,4.9,18.7,6.2c10.5,1.2,22.7,2.8,22.7,15.7
					c0,13.1-10.3,19.2-27.4,19.2C443.3,347.7,433.4,345,426.6,340.8"/>
			</g>
			<polygon id="Fill-16" class="st4" points="63.8,317.5 63.8,336.9 107.1,317.5 107.1,298 			"/>
			<g id="Group-20" transform="translate(5.079770, 19.648549)">
				<g id="Clip-19">
				</g>
				<defs>
					<filter id="Adobe_OpacityMaskFilter_1_" filterUnits="userSpaceOnUse" x="37.4" y="317.2" width="64.6" height="48">
						<feColorMatrix  type="matrix" values="1 0 0 0 0  0 1 0 0 0  0 0 1 0 0  0 0 0 1 0"/>
					</filter>
				</defs>
				<mask maskUnits="userSpaceOnUse" x="37.4" y="317.2" width="64.6" height="48" id="mask-4_1_">
					<g class="st5">
						<polygon id="path-3_1_" class="st2" points="37.4,365.2 102,365.2 102,317.2 37.4,317.2 						"/>
					</g>
				</mask>
				<polygon id="Fill-18" class="st6" points="102,336.6 37.4,365.2 37.4,345.8 102,317.2 				"/>
			</g>
			<polygon id="Fill-21" class="st7" points="63.8,317.5 63.8,336.9 20.6,317.5 20.6,298 			"/>
			<polygon id="Fill-23" class="st8" points="107.1,278.6 20.6,317.5 20.6,298 107.1,259.2 			"/>
		</g>
	</g>
</g>
</svg>
